<?xml version="1.0" encoding="UTF-8"?>
<svg id="Layer_2" data-name="Layer 2" xmlns="http://www.w3.org/2000/svg" viewBox="0 0 445.75 423.17">
  <defs>
    <style>
      .cls-1 {
        fill: #fc6229;
      }

      .cls-2 {
        fill: #fe910e;
      }

      .cls-3 {
        fill: #343537;
      }

      .cls-4 {
        fill: #252627;
      }
    </style>
  </defs>
  <g id="Layer_2-2" data-name="Layer 2">
    <g id="znCI5W.tif">
      <g>
        <path class="cls-1" d="M200.96,352.93c3.06,1.68,7.74,3.49,7.73,7.27l-.11,55.96c0,3.93-3.72,6.76-7.4,6.77l-128,.24c-36.71.07-72.33-27.95-72.43-66.41L0,70.34C-.06,48.21,8.95,28.39,26.54,15.42c8.18-6.03,17.36-9.15,27.83-8.45l50.16,50.12c37.3,37.27,61.85,85.67,75.93,136.41,2.33,8.4,5.56,16.94,4.55,25.62l-12.76,109.67c-.76,6.5,3.1,10.09,8.37,12.98l20.36,11.16Z"/>
        <path class="cls-2" d="M445.13,224.07l.28-159.17c.05-28-24.66-60.52-54.17-57.76l-49.08,49.13c-38.3,38.34-63.35,87.74-77.56,139.93-2,7.33-4.65,14.5-3.86,21.87l6.51,57.99,5.98,51.75c.74,6.44-2.17,10.61-7.82,13.72l-22.87,12.6c-3.11,1.72-5.68,3.87-5.68,7.77v52.95c0,4.71,3.58,8.14,8.39,8.15l124.68.15c16.02.02,30.41-3.34,43.68-11.83,21.31-13.63,32.25-36.26,32.13-61.51l-.61-125.73Z"/>
        <path class="cls-3" d="M252.68,173.67l-7.74,27.24-43.86.1-8.04-27.61c5.45-2.48,10.42-3.18,15.54-4.9,6.33-2.13,2.56-8.97,1.12-15.81-1.88-8.92-16.67.75-23.5.52-1.49-3.65-11.22-19.06-6.59-20.55l18.22-5.84c7.99-2.56-.2-16.6-1.74-18.52-3.52-4.39-20.79,5.73-27.88,5.69-3.77-6.03-7.24-11.97-10.5-18.88,8.23-4.07,16.11-6.15,24.16-9.23,6.9-2.64,1.67-11.32-1.95-17.33-1.52-2.52-4.88-2.05-7.28-1.19l-26.94,9.68c-5.04-6.44-9.63-12.53-13.89-19.74l25.79-10.49c1.61-.66,2.98-1.57,3.47-2.53.9-1.75,1.06-3.96-.13-5.67-4.96-7.17-5.75-12.73-13.11-9.94-10.25,3.88-19.67,8.2-30.31,11.31L84.08,6.55c-1.09-1.08-1.33-2.58-1.22-3.63.14-1.34,1.35-2.84,3.7-2.84L358.85,0c1.92,0,3.18.59,3.75,1.34.63.83.94,3.28-.19,4.43l-30.64,31.09c-1.85,1.88-3.3,3.59-6.15,2.49l-28.62-11.08c-5.72-2.22-8.59,4.74-11.87,10.22-1.84,3.08-.65,6.76,2.71,8.24,8.58,3.76,17.44,6.27,26.22,10.67-3.25,6.86-8.18,11.76-11.89,17.88-.63,1.04-2.59,1.73-3.78,1.29l-25.44-9.55c-2.81-1.05-5.55-.7-7.05,2.18-2.12,4.05-8.56,13.87-2.76,16.06l21.91,8.28c1.1.42,2.04.91,2.29,1.7.85,2.77-7.56,15.36-10.04,19.09l-22.34-7.22c-2.56-.83-5.13.56-6.04,2.97l-3.61,9.49c-.97,2.56-.23,5.91,2.55,6.83l17.31,5.74c5.8,1.92-.3,8.86-3.67,18.52-.79,2.26-3.01,3.08-5.3,2.35l-13.09-4.17c-3.1-.99-5.8.97-6.6,3.94l-2.41,8.99c-2.26,8.42,12.15,7.63,18.59,11.9Z"/>
        <path class="cls-4" d="M238.3,322.12c-20.11,12.75-41.12-3.85-39.44-12.2l14.03-69.49c7.23-.31,12.96-.69,19.62.36l13.88,68.4c1.16,5.7-3.74,10.18-8.09,12.94Z"/>
      </g>
    </g>
  </g>
</svg>